<svg xmlns="http://www.w3.org/2000/svg" width="155.17" height="177.102" viewBox="0 0 155.17 177.102">
  <g id="Group_156806" data-name="Group 156806" transform="translate(-1495.916 -493.02)">
    <g id="Group_156805" data-name="Group 156805" transform="translate(680.713 233.873)">
      <g id="Group_156730" data-name="Group 156730" transform="translate(815.203 259.147)">
        <g id="Group_14103" data-name="Group 14103" transform="translate(0)">
          <path id="Path_45077" data-name="Path 45077" d="M1343.483,1589.229h-62.835l-6.161,4.889h69v69l4.889-6.161v-67.724Z" transform="translate(-1199.073 -1577.474)" fill="#c2cbd8"/>
          <path id="Path_45078" data-name="Path 45078" d="M1312.811,1844.922H1258l4.185,4.377h74.526v-28.28Z" transform="translate(-1192.141 -1674.937)" fill="#c2cbd8"/>
          <path id="Path_45079" data-name="Path 45079" d="M1306.952,1790.073h-94.221l-5.281-5.522h-33.93v-.274h34.047l5.281,5.522h93.83v-35.588l4.836-6.373v-74.189h.274v74.281l-4.836,6.373Z" transform="translate(-1156.619 -1612.971)" fill="#c2cbd8"/>
          <path id="Path_45080" data-name="Path 45080" d="M1274.745,1749.99H1166.124V1618.616l23.314-23.314h108.621v131.374Zm-105.882-2.739h104.747l21.709-21.709v-127.5H1190.572l-21.709,21.709Z" transform="translate(-1153.508 -1580.027)" fill="#c2cbd8"/>
          <path id="Path_45081" data-name="Path 45081" d="M1238.95,1814.741h-56.993v-43.625h.822v42.8h56.171Z" transform="translate(-1160.166 -1653.954)" fill="#c2cbd8" opacity="0.84"/>
          <path id="Path_45082" data-name="Path 45082" d="M1203.121,1831.788h-23.526V1808.4l3.561,2.129v17.7h18.312Z" transform="translate(-1159.172 -1669.632)" fill="#c2cbd8"/>
          <path id="Path_45083" data-name="Path 45083" d="M1352.681,1667.581h-.822v-55.624h-34.01v-.822h34.831Z" transform="translate(-1217.306 -1586.685)" fill="#c2cbd8" opacity="0.84"/>
          <path id="Path_45084" data-name="Path 45084" d="M1149.244,1568.945h62.835l6.161,4.889h-69v69l-4.889-6.161v-67.724Z" transform="translate(-1144.355 -1568.945)" fill="#c2cbd8"/>
          <ellipse id="Ellipse_143" data-name="Ellipse 143" cx="1.786" cy="1.786" rx="1.786" ry="1.786" transform="translate(20.416 115.376)" fill="#c2cbd8"/>
          <ellipse id="Ellipse_144" data-name="Ellipse 144" cx="1.786" cy="1.786" rx="1.786" ry="1.786" transform="translate(76.998 158.59)" fill="#c2cbd8"/>
          <ellipse id="Ellipse_145" data-name="Ellipse 145" cx="1.786" cy="1.786" rx="1.786" ry="1.786" transform="translate(133.178 79.11)" fill="#c4eeff"/>
          <ellipse id="Ellipse_146" data-name="Ellipse 146" cx="1.786" cy="1.786" rx="1.786" ry="1.786" transform="translate(98.758 23.075)" fill="#c2cbd8"/>
          <path id="Path_45085" data-name="Path 45085" d="M1230.667,1847.063h-18.785v-2.335h16.527Z" transform="translate(-1172.749 -1684.907)" fill="#c2cbd8"/>
          <path id="Path_45086" data-name="Path 45086" d="M1155.617,1662.445l-4.382-5.057v-81.865h101.23l4.846,4.382H1155.617Z" transform="translate(-1147.247 -1571.711)" fill="#c2cbd8"/>
          <rect id="Rectangle_9915" data-name="Rectangle 9915" width="0.822" height="44.255" transform="translate(5.767 73.885)" fill="#c2cbd8"/>
          <rect id="Rectangle_9916" data-name="Rectangle 9916" width="44.255" height="0.822" transform="translate(96.765 7.373)" fill="#c2cbd8"/>
          <path id="Path_45087" data-name="Path 45087" d="M1155.6,1784.5a2.123,2.123,0,1,1-2.123-2.123A2.123,2.123,0,0,1,1155.6,1784.5Z" transform="translate(-1147.297 -1658.689)" fill="#c2cbd8"/>
          <path id="Path_45088" data-name="Path 45088" d="M1155.6,1799.132a2.123,2.123,0,1,1-2.123-2.123A2.123,2.123,0,0,1,1155.6,1799.132Z" transform="translate(-1147.297 -1664.841)" fill="#c2cbd8"/>
          <path id="Path_45089" data-name="Path 45089" d="M1155.6,1813.763a2.123,2.123,0,1,1-2.123-2.123A2.123,2.123,0,0,1,1155.6,1813.763Z" transform="translate(-1147.297 -1670.994)" fill="#c2cbd8"/>
          <path id="Path_45090" data-name="Path 45090" d="M1155.6,1828.395a2.123,2.123,0,1,1-2.123-2.123A2.123,2.123,0,0,1,1155.6,1828.395Z" transform="translate(-1147.297 -1677.146)" fill="#c2cbd8"/>
          <path id="Path_45091" data-name="Path 45091" d="M1155.6,1843.027a2.123,2.123,0,1,1-2.123-2.123A2.123,2.123,0,0,1,1155.6,1843.027Z" transform="translate(-1147.297 -1683.299)" fill="#c2cbd8"/>
          <rect id="Rectangle_9917" data-name="Rectangle 9917" width="49.228" height="1.168" transform="translate(30.519 173.193)" fill="#c2cbd8"/>
          <rect id="Rectangle_9918" data-name="Rectangle 9918" width="0.822" height="62.674" transform="translate(147.054 66.202)" fill="#c2cbd8" opacity="0.84"/>
        </g>
      </g>
    </g>
    <g id="dashboard" transform="translate(1536.582 548)">
      <g id="Group_156787" data-name="Group 156787" transform="translate(2.159 2.159)">
        <g id="Group_156774" data-name="Group 156774" transform="translate(0 8.111)">
          <path id="Path_231706" data-name="Path 231706" d="M2,9V53.031H48.348a5.793,5.793,0,1,1,11.587,0H64.57V9Z" transform="translate(-2 -9)" fill="none"/>
        </g>
        <g id="Group_156775" data-name="Group 156775" transform="translate(4.635 38.237)">
          <path id="Path_231707" data-name="Path 231707" d="M6,35h4.635v9.27H6Z" transform="translate(-6 -35)" fill="#041937"/>
        </g>
        <g id="Group_156776" data-name="Group 156776" transform="translate(13.904 40.554)">
          <path id="Path_231708" data-name="Path 231708" d="M14,37h4.635v6.952H14Z" transform="translate(-14 -37)" fill="#041937"/>
        </g>
        <g id="Group_156777" data-name="Group 156777" transform="translate(23.174 31.285)">
          <path id="Path_231709" data-name="Path 231709" d="M22,29h4.635V45.222H22Z" transform="translate(-22 -29)" fill="#041937"/>
        </g>
        <g id="Group_156778" data-name="Group 156778" transform="translate(32.444 35.92)">
          <path id="Path_231710" data-name="Path 231710" d="M34.635,33v7.555a17.463,17.463,0,0,0-1.692,4.032H30V33Z" transform="translate(-30 -33)" fill="#041937"/>
        </g>
        <g id="Group_156779" data-name="Group 156779" transform="translate(41.713 41.713)">
          <path id="Path_231711" data-name="Path 231711" d="M48.428,38A10.429,10.429,0,0,0,38,48.428a10.428,10.428,0,0,0,20.857,0A10.429,10.429,0,0,0,48.428,38Zm0,16.222a5.793,5.793,0,1,1,5.793-5.793A5.8,5.8,0,0,1,48.428,54.222Z" transform="translate(-38 -38)" fill="#c4eeff"/>
        </g>
        <g id="Group_156780" data-name="Group 156780" transform="translate(37.09 57.356)">
          <path id="Path_231712" data-name="Path 231712" d="M58.088,51.5l6.025,3.476a17.38,17.38,0,0,1-30.1,0L40.035,51.5a10.42,10.42,0,0,0,18.053,0Z" transform="translate(-34.01 -51.5)" fill="#2268ef"/>
        </g>
        <g id="Group_156781" data-name="Group 156781" transform="translate(52.141 34.761)">
          <path id="Path_231713" data-name="Path 231713" d="M64.381,49.38a17.246,17.246,0,0,1-2.329,8.69l-6.025-3.476a10.322,10.322,0,0,0,1.4-5.214A10.429,10.429,0,0,0,47,38.952V32a17.38,17.38,0,0,1,17.38,17.38Z" transform="translate(-47 -32)" fill="#2268ef"/>
        </g>
        <g id="Group_156782" data-name="Group 156782" transform="translate(34.761 34.761)">
          <path id="Path_231714" data-name="Path 231714" d="M49.38,32v6.952A10.429,10.429,0,0,0,38.952,49.38a10.322,10.322,0,0,0,1.4,5.214l-6.025,3.476A17.246,17.246,0,0,1,32,49.38,17.386,17.386,0,0,1,49.38,32Z" transform="translate(-32 -32)" fill="#2268ef"/>
        </g>
        <g id="Group_156783" data-name="Group 156783" transform="translate(27.809 23.174)">
          <path id="Path_231715" data-name="Path 231715" d="M29.951,22.684a2.266,2.266,0,0,1,.684,1.634A2.317,2.317,0,1,1,28.317,22,2.266,2.266,0,0,1,29.951,22.684Z" transform="translate(-26 -22)" fill="#2268ef"/>
        </g>
        <g id="Group_156784" data-name="Group 156784" transform="translate(38.237 12.746)">
          <path id="Path_231716" data-name="Path 231716" d="M38.951,16.951A2.317,2.317,0,0,1,35,15.317a2.317,2.317,0,0,1,4.635,0A2.266,2.266,0,0,1,38.951,16.951Z" transform="translate(-35 -13)" fill="#2268ef"/>
        </g>
        <g id="Group_156785" data-name="Group 156785" transform="translate(45.189 19.698)">
          <path id="Path_231717" data-name="Path 231717" d="M44.951,19.684a2.266,2.266,0,0,1,.684,1.634,2.317,2.317,0,1,1-4.635,0,2.311,2.311,0,0,1,3.951-1.634Z" transform="translate(-41 -19)" fill="#2268ef"/>
        </g>
        <g id="Group_156786" data-name="Group 156786" transform="translate(55.618)">
          <path id="Path_231718" data-name="Path 231718" d="M56.952,2a6.952,6.952,0,1,1,0,13.9A6.95,6.95,0,0,1,50.1,10.111,6.338,6.338,0,0,1,50,8.952,6.958,6.958,0,0,1,56.952,2Z" transform="translate(-50 -2)" fill="#2268ef"/>
        </g>
      </g>
      <g id="Group_156788" data-name="Group 156788" transform="translate(1 1)">
        <path id="Path_231719" data-name="Path 231719" d="M65.887,39.851V17.129a8.106,8.106,0,1,0-9.27-8.018H1V55.459H35.82A18.527,18.527,0,1,0,65.887,39.851ZM64.728,3.317a5.793,5.793,0,1,1-5.794,5.793A5.8,5.8,0,0,1,64.728,3.317ZM3.317,11.428H56.959a8.105,8.105,0,0,0,1.283,2.532l-7.087,7.087a3.355,3.355,0,0,0-2.979,0l-2.335-2.335a3.444,3.444,0,0,0,.348-1.49,3.476,3.476,0,0,0-6.952,0,3.419,3.419,0,0,0,.349,1.489l-5.811,5.811a3.444,3.444,0,0,0-1.49-.348,3.476,3.476,0,1,0,3.476,3.476,3.419,3.419,0,0,0-.349-1.489l5.811-5.811a3.36,3.36,0,0,0,2.979,0l2.335,2.335a3.444,3.444,0,0,0-.348,1.49,3.476,3.476,0,1,0,6.952,0,3.419,3.419,0,0,0-.349-1.489L59.88,15.6A8.061,8.061,0,0,0,63.57,17.13v21.14A18.427,18.427,0,0,0,40.4,42.079V36.92H33.444v13.9H36.1a18.587,18.587,0,0,0-.279,2.317H3.317ZM49.665,23.015a1.159,1.159,0,1,1-1.159,1.159A1.16,1.16,0,0,1,49.665,23.015Zm-8.111-5.793a1.159,1.159,0,1,1,1.159,1.159A1.16,1.16,0,0,1,41.554,17.222ZM33.444,27.65a1.159,1.159,0,1,1-1.159-1.159A1.16,1.16,0,0,1,33.444,27.65ZM54.3,63.57a9.27,9.27,0,1,1,9.27-9.27A9.28,9.28,0,0,1,54.3,63.57ZM38.078,45.345A18.4,18.4,0,0,0,36.7,48.507h-.94v-9.27h2.317Zm15.063-7.207v4.635a11.563,11.563,0,0,0-9.4,16.283l-4.02,2.321A16.166,16.166,0,0,1,53.141,38.137ZM54.3,70.522A16.214,16.214,0,0,1,40.873,63.39l4.036-2.33a11.549,11.549,0,0,0,18.783,0l4.036,2.33A16.214,16.214,0,0,1,54.3,70.522Zm14.574-9.146-4.02-2.321a11.563,11.563,0,0,0-9.4-16.283V38.137A16.166,16.166,0,0,1,68.874,61.376Z" transform="translate(-1 -1)" fill="#c4eeff"/>
        <path id="Path_231720" data-name="Path 231720" d="M47.952,41A6.952,6.952,0,1,0,54.9,47.952,6.959,6.959,0,0,0,47.952,41Zm0,11.587a4.635,4.635,0,1,1,4.635-4.635A4.639,4.639,0,0,1,47.952,52.587Z" transform="translate(5.348 5.348)" fill="#c4eeff"/>
        <path id="Path_231721" data-name="Path 231721" d="M5,12H7.317v2.317H5Z" transform="translate(-0.365 0.746)" fill="#2268ef"/>
        <path id="Path_231722" data-name="Path 231722" d="M9,12H25.222v2.317H9Z" transform="translate(0.27 0.746)" fill="#c4eeff"/>
        <path id="Path_231723" data-name="Path 231723" d="M5,16H7.317v2.317H5Z" transform="translate(-0.365 1.38)" fill="#2268ef"/>
        <path id="Path_231724" data-name="Path 231724" d="M9,16H25.222v2.317H9Z" transform="translate(0.27 1.38)" fill="#c4eeff"/>
        <path id="Path_231725" data-name="Path 231725" d="M5,20H7.317v2.317H5Z" transform="translate(-0.365 2.015)" fill="#2268ef"/>
        <path id="Path_231726" data-name="Path 231726" d="M9,20H25.222v2.317H9Z" transform="translate(0.27 2.015)" fill="#c4eeff"/>
        <path id="Path_231727" data-name="Path 231727" d="M5,24H7.317v2.317H5Z" transform="translate(-0.365 2.65)" fill="#2268ef"/>
        <path id="Path_231728" data-name="Path 231728" d="M9,24H25.222v2.317H9Z" transform="translate(0.27 2.65)" fill="#c4eeff"/>
        <path id="Path_231729" data-name="Path 231729" d="M5,45.587h6.952V34H5Zm2.317-9.27H9.635V43.27H7.317V36.317Z" transform="translate(-0.365 4.237)" fill="#c4eeff"/>
        <path id="Path_231730" data-name="Path 231730" d="M13,45.27h6.952V36H13Zm2.317-6.952h2.317v4.635H15.317Z" transform="translate(0.904 4.554)" fill="#c4eeff"/>
        <path id="Path_231731" data-name="Path 231731" d="M21,46.539h6.952V28H21Zm2.317-16.222h2.317v13.9H23.317Z" transform="translate(2.174 3.285)" fill="#c4eeff"/>
      </g>
    </g>
  </g>
</svg>
