<svg xmlns="http://www.w3.org/2000/svg" width="593.653" height="357.499" viewBox="0 0 593.653 357.499">
  <g id="Group_156773" data-name="Group 156773" transform="translate(-1297.674 -195)" opacity="0.9">
    <g id="Group_156772" data-name="Group 156772" transform="translate(1298.674 196)">
      <g id="Group_156726" data-name="Group 156726" transform="translate(0 0)">
        <path id="Path_231688" data-name="Path 231688" d="M50.488,1601.416H642.141V1498.123H627.82v-54.746h14.321V1245.917H50.488v109.866H67.134v149.308H50.488Zm590.141-1.991H52v-92.343H68.648v-153.29H52V1247.908H640.629v193.478H626.307v58.728h14.322Z" transform="translate(-50.488 -1245.917)" fill="#fff" stroke="#fff" stroke-width="5"/>
        <path id="Path_231670" data-name="Path 231670" d="M1812.8,1200.911H1221.148V1310.96h16.683v142.78l-14.026,7.692L1221.148,1554H1812.8l-2.422-100.056-11.333-4.265v-52.455H1812.8Z" transform="translate(-1221.148 -1198.501)" fill="#0a1f47" opacity="1"/>
      </g>
    </g>
    <g id="Group_156737" data-name="Group 156737" transform="translate(701.713 10.873)">
      <g id="Group_156730" data-name="Group 156730" transform="translate(815.203 259.147)">
        <g id="Group_14103" data-name="Group 14103" transform="translate(0)">
          <path id="Path_45077" data-name="Path 45077" d="M1343.483,1589.229h-62.835l-6.161,4.889h69v69l4.889-6.161v-67.724Z" transform="translate(-1199.073 -1577.474)" fill="#c2cbd8"/>
          <path id="Path_45078" data-name="Path 45078" d="M1312.811,1844.922H1258l4.185,4.377h74.526v-28.28Z" transform="translate(-1192.141 -1674.937)" fill="#c2cbd8"/>
          <path id="Path_45079" data-name="Path 45079" d="M1306.952,1790.073h-94.221l-5.281-5.522h-33.93v-.274h34.047l5.281,5.522h93.83v-35.588l4.836-6.373v-74.189h.274v74.281l-4.836,6.373Z" transform="translate(-1156.619 -1612.971)" fill="#c2cbd8"/>
          <path id="Path_45080" data-name="Path 45080" d="M1274.745,1749.99H1166.124V1618.616l23.314-23.314h108.621v131.374Zm-105.882-2.739h104.747l21.709-21.709v-127.5H1190.572l-21.709,21.709Z" transform="translate(-1153.508 -1580.027)" fill="#c2cbd8"/>
          <path id="Path_45081" data-name="Path 45081" d="M1238.95,1814.741h-56.993v-43.625h.822v42.8h56.171Z" transform="translate(-1160.166 -1653.954)" fill="#c2cbd8" opacity="1"/>
          <path id="Path_45082" data-name="Path 45082" d="M1203.121,1831.788h-23.526V1808.4l3.561,2.129v17.7h18.312Z" transform="translate(-1159.172 -1669.632)" fill="#c2cbd8"/>
          <path id="Path_45083" data-name="Path 45083" d="M1352.681,1667.581h-.822v-55.624h-34.01v-.822h34.831Z" transform="translate(-1217.306 -1586.685)" fill="#c2cbd8" opacity="1"/>
          <path id="Path_45084" data-name="Path 45084" d="M1149.244,1568.945h62.835l6.161,4.889h-69v69l-4.889-6.161v-67.724Z" transform="translate(-1144.355 -1568.945)" fill="#c2cbd8"/>
          <ellipse id="Ellipse_143" data-name="Ellipse 143" cx="1.786" cy="1.786" rx="1.786" ry="1.786" transform="translate(20.416 115.376)" fill="#c2cbd8"/>
          <ellipse id="Ellipse_144" data-name="Ellipse 144" cx="1.786" cy="1.786" rx="1.786" ry="1.786" transform="translate(76.998 158.59)" fill="#c2cbd8"/>
          <ellipse id="Ellipse_145" data-name="Ellipse 145" cx="1.786" cy="1.786" rx="1.786" ry="1.786" transform="translate(133.178 79.11)" fill="#c4eeff"/>
          <ellipse id="Ellipse_146" data-name="Ellipse 146" cx="1.786" cy="1.786" rx="1.786" ry="1.786" transform="translate(98.758 23.075)" fill="#c2cbd8"/>
          <path id="Path_45085" data-name="Path 45085" d="M1230.667,1847.063h-18.785v-2.335h16.527Z" transform="translate(-1172.749 -1684.907)" fill="#c2cbd8"/>
          <path id="Path_45086" data-name="Path 45086" d="M1155.617,1662.445l-4.382-5.057v-81.865h101.23l4.846,4.382H1155.617Z" transform="translate(-1147.247 -1571.711)" fill="#c2cbd8"/>
          <rect id="Rectangle_9915" data-name="Rectangle 9915" width="0.822" height="44.255" transform="translate(5.767 73.885)" fill="#c2cbd8"/>
          <rect id="Rectangle_9916" data-name="Rectangle 9916" width="44.255" height="0.822" transform="translate(96.765 7.373)" fill="#c2cbd8"/>
          <path id="Path_45087" data-name="Path 45087" d="M1155.6,1784.5a2.123,2.123,0,1,1-2.123-2.123A2.123,2.123,0,0,1,1155.6,1784.5Z" transform="translate(-1147.297 -1658.689)" fill="#c2cbd8"/>
          <path id="Path_45088" data-name="Path 45088" d="M1155.6,1799.132a2.123,2.123,0,1,1-2.123-2.123A2.123,2.123,0,0,1,1155.6,1799.132Z" transform="translate(-1147.297 -1664.841)" fill="#c2cbd8"/>
          <path id="Path_45089" data-name="Path 45089" d="M1155.6,1813.763a2.123,2.123,0,1,1-2.123-2.123A2.123,2.123,0,0,1,1155.6,1813.763Z" transform="translate(-1147.297 -1670.994)" fill="#c2cbd8"/>
          <path id="Path_45090" data-name="Path 45090" d="M1155.6,1828.395a2.123,2.123,0,1,1-2.123-2.123A2.123,2.123,0,0,1,1155.6,1828.395Z" transform="translate(-1147.297 -1677.146)" fill="#c2cbd8"/>
          <path id="Path_45091" data-name="Path 45091" d="M1155.6,1843.027a2.123,2.123,0,1,1-2.123-2.123A2.123,2.123,0,0,1,1155.6,1843.027Z" transform="translate(-1147.297 -1683.299)" fill="#c2cbd8"/>
          <rect id="Rectangle_9917" data-name="Rectangle 9917" width="49.228" height="1.168" transform="translate(30.519 173.193)" fill="#c2cbd8"/>
          <rect id="Rectangle_9918" data-name="Rectangle 9918" width="0.822" height="62.674" transform="translate(147.054 66.202)" fill="#c2cbd8" opacity="1"/>
        </g>
        <g id="Group_3768" data-name="Group 3768" transform="translate(48.598 59.562)">
          <path id="Path_7280" data-name="Path 7280" d="M459.67,714.4a17.253,17.253,0,1,0,17.253-17.254A17.273,17.273,0,0,0,459.67,714.4Zm29.274-1.051a12.066,12.066,0,1,1-13.068-10.969A12.065,12.065,0,0,1,488.944,713.351Z" transform="translate(-447.936 -685.413)" fill="#2268ef"/>
          <path id="Path_7281" data-name="Path 7281" d="M497.877,721.235l2.851-.11a1.76,1.76,0,0,0,1.526-1.215l.937-4.516a1.762,1.762,0,0,0-.911-1.724l-2.57-1.243a2.155,2.155,0,0,1-1.1-1.736s0-.332-.071-1.111l-.022-.269c-.037-.292.392-.822.954-1.177l2.419-1.527a1.761,1.761,0,0,0,.714-1.815l-1.43-4.381a1.76,1.76,0,0,0-1.651-1.035l-2.861.207a2.042,2.042,0,0,1-1.749-.806c-.3-.493-.916-2.207-.606-2.795l1.33-2.527a1.755,1.755,0,0,0-.288-1.926l-3.435-3.073a1.757,1.757,0,0,0-1.948-.074l-2.367,1.605a2.041,2.041,0,0,1-1.915.176c-.5-.276-1.9-1.459-1.925-2.122l-.112-2.853a1.757,1.757,0,0,0-1.213-1.526l-4.515-.94a1.756,1.756,0,0,0-1.722.91l-1.245,2.571a2.151,2.151,0,0,1-1.734,1.1s-.333.006-1.111.071l-.271.026c-.292.036-.821-.394-1.174-.957l-1.528-2.423a1.759,1.759,0,0,0-1.813-.714l-4.383,1.431a1.756,1.756,0,0,0-1.036,1.65l.207,2.861a2.042,2.042,0,0,1-.808,1.75c-.491.3-2.2.917-2.792.608l-2.53-1.33a1.756,1.756,0,0,0-1.926.288l-3.073,3.438a1.757,1.757,0,0,0-.072,1.947l1.607,2.368a2.037,2.037,0,0,1,.176,1.913c-.277.5-1.46,1.9-2.124,1.924l-2.854.111a1.759,1.759,0,0,0-1.525,1.213L445.246,708a1.76,1.76,0,0,0,.912,1.722l2.572,1.244a2.148,2.148,0,0,1,1.1,1.735s.006.334.073,1.111l.024.271c.036.292-.393.822-.956,1.176l-2.422,1.527a1.757,1.757,0,0,0-.714,1.813l1.43,4.38a1.759,1.759,0,0,0,1.651,1.036l2.858-.208a2.04,2.04,0,0,1,1.749.806c.3.491.917,2.207.608,2.795l-1.33,2.527a1.755,1.755,0,0,0,.289,1.927l3.438,3.075a1.76,1.76,0,0,0,1.947.072l2.368-1.606a2.029,2.029,0,0,1,1.913-.175c.5.276,1.9,1.459,1.923,2.122l.112,2.854a1.762,1.762,0,0,0,1.213,1.526l4.514.938a1.762,1.762,0,0,0,1.723-.911l1.248-2.572a2.16,2.16,0,0,1,1.736-1.105s.332,0,1.111-.069l.268-.023c.292-.039.821.39,1.175.953l1.528,2.423a1.756,1.756,0,0,0,1.813.716l4.381-1.432a1.759,1.759,0,0,0,1.036-1.65l-.206-2.861a2.047,2.047,0,0,1,.807-1.75c.491-.3,2.206-.916,2.793-.608l2.529,1.329a1.754,1.754,0,0,0,1.926-.289l3.074-3.438a1.758,1.758,0,0,0,.073-1.947l-1.606-2.367a2.034,2.034,0,0,1-.176-1.913C496.029,722.656,497.213,721.26,497.877,721.235Zm-23.658,10.122a19.66,19.66,0,1,1,19.66-19.66A19.683,19.683,0,0,1,474.219,731.357Z" transform="translate(-445.232 -682.708)" fill="#c2cbd8"/>
        </g>
        <text id="System_Configuration" data-name="System Configuration" transform="translate(6.145 203.459)" fill="#fff" font-size="14" font-family="SegoeUI-Semibold, Segoe UI" font-weight="600" opacity="1"><tspan x="0" y="0">System Configuration</tspan></text>
      </g>
    </g>
  </g>
</svg>
