<svg xmlns="http://www.w3.org/2000/svg" width="20.211" height="23.784" viewBox="0 0 20.211 23.784">
  <g id="Group_3596" data-name="Group 3596" transform="translate(-37.097 -238.02)">
    <g id="Group_3595" data-name="Group 3595" transform="translate(37.097 238.02)">
      <path id="Path_6888" data-name="Path 6888" d="M43.35,268.69a.29.29,0,0,0-.271-.185h-2.11a3.872,3.872,0,0,0-3.872,3.872v1.92a.29.29,0,0,0,.29.29h7.828a.29.29,0,0,0,.271-.4Zm10.086-.185H51.33a.29.29,0,0,0-.271.185l-2.137,5.5a.291.291,0,0,0,.271.4h7.823a.29.29,0,0,0,.29-.29v-1.92A3.872,3.872,0,0,0,53.436,268.505Z" transform="translate(-37.097 -250.803)" fill="#8290a3"/>
      <path id="Path_6889" data-name="Path 6889" d="M40.635,247.02H39.474a.726.726,0,1,0,0,1.452h1.161a.726.726,0,0,0,0-1.452Zm7.258-6.387a.726.726,0,0,0,.726-.726v-1.161a.726.726,0,0,0-1.452,0v1.161A.726.726,0,0,0,47.893,240.633Zm-5.44,1.227-.821-.821a.726.726,0,1,0-1.027,1.026l.821.822a.726.726,0,1,0,1.027-1.027Zm5.441,14.02a.871.871,0,0,0-.871.871v4.06a.871.871,0,1,0,1.742,0v-4.06A.871.871,0,0,0,47.895,255.879Zm7.287-14.841a.726.726,0,0,0-1.027,0l-.821.821a.726.726,0,0,0,1.027,1.027l.821-.822A.726.726,0,0,0,55.181,241.038Zm-7.919.937a5.783,5.783,0,0,0-4.756,4.732A5.405,5.405,0,0,0,44,251.137a3.472,3.472,0,0,1,.975,2.418h0a.835.835,0,0,0,.835.834h4.174a.835.835,0,0,0,.835-.834,3.422,3.422,0,0,1,.956-2.4,5.424,5.424,0,0,0-4.51-9.181Zm1.356,7.542v2a.726.726,0,1,1-1.452,0v-2a1.924,1.924,0,0,1-1.449-1.77.726.726,0,1,1,1.452,0c0,.206.31.436.725.436s.725-.23.725-.436a.726.726,0,1,1,1.452,0A1.924,1.924,0,0,1,48.619,249.517Zm7.694-2.5H55.152a.726.726,0,1,0,0,1.452h1.161a.726.726,0,0,0,0-1.452Z" transform="translate(-37.789 -238.02)" fill="#8290a3"/>
    </g>
  </g>
</svg>
