<svg xmlns="http://www.w3.org/2000/svg" width="45" height="38" viewBox="0 0 45 38">
  <g id="Group_156606" data-name="Group 156606" transform="matrix(1,0,0,1,-928,-429)" opacity="0.8">
    <g id="Group_156605" data-name="Group 156605" transform="translate(0,9.1)">
      <g id="volume" transform="translate(931.1,427.1)">
        <path id="Path_231652" data-name="Path 231652" d="M 53.8 25 a 0.8 0.8 0 0 0 -0.8 0.8 v 6.3 a 0.8 0.8 0 0 0 1.6 0 V 25.8 A 0.8 0.8 0 0 0 53.8 25 Z" transform="translate(-15.4,-15.2)" fill="#828fa2"/>
        <path id="Path_231653" data-name="Path 231653" d="M 50.3 35.7 V 19.3 a 0.8 0.8 0 1 0 -1.6 0 V 35.7 a 0.8 0.8 0 1 0 1.6 0 Z" transform="translate(-14.5,-13.8)" fill="#828fa2"/>
        <path id="Path_231654" data-name="Path 231654" d="M 46 32 V 25.8 a 0.8 0.8 0 1 0 -1.6 0 v 6.3 a 0.8 0.8 0 0 0 1.6 0 Z" transform="translate(-13.6,-15.2)" fill="#828fa2"/>
        <path id="Path_231655" data-name="Path 231655" d="M 41.7 35.7 V 19.3 a 0.8 0.8 0 1 0 -1.6 0 V 35.7 a 0.8 0.8 0 1 0 1.6 0 Z" transform="translate(-12.6,-13.8)" fill="#828fa2"/>
        <path id="Path_231656" data-name="Path 231656" d="M 37.2 39.1 V 13.3 a 0.8 0.8 0 0 0 -1.6 0 V 39.1 a 0.8 0.8 0 0 0 1.6 0 Z" transform="translate(-11.6,-12.5)" fill="#828fa2"/>
        <path id="Path_231657" data-name="Path 231657" d="M 32.9 35.5 V 19.6 a 0.8 0.8 0 1 0 -1.6 0 V 35.5 a 0.8 0.8 0 1 0 1.6 0 Z" transform="translate(-10.7,-13.9)" fill="#828fa2"/>
        <path id="Path_231658" data-name="Path 231658" d="M 28.2 31.2 V 27.3 a 0.8 0.8 0 1 0 -1.6 0 v 3.8 a 0.8 0.8 0 0 0 1.6 0 Z" transform="translate(-9.7,-15.5)" fill="#828fa2"/>
        <path id="Path_231659" data-name="Path 231659" d="M 24.2 32.6 V 24.7 a 0.8 0.8 0 1 0 -1.6 0 v 7.9 a 0.8 0.8 0 1 0 1.6 0 Z" transform="translate(-8.8,-15)" fill="#828fa2"/>
        <path id="Path_231660" data-name="Path 231660" d="M 19.7 35.4 V 19.9 a 0.8 0.8 0 1 0 -1.6 0 V 35.4 a 0.8 0.8 0 1 0 1.6 0 Z" transform="translate(-7.8,-13.9)" fill="#828fa2"/>
        <path id="Path_231661" data-name="Path 231661" d="M 15.4 38.9 v -25.3 a 0.8 0.8 0 1 0 -1.6 0 v 25.3 a 0.8 0.8 0 0 0 1.6 0 Z" transform="translate(-6.9,-12.6)" fill="#828fa2"/>
        <path id="Path_231662" data-name="Path 231662" d="M 10.8 35 V 20.5 a 0.8 0.8 0 1 0 -1.6 0 V 35 a 0.8 0.8 0 1 0 1.6 0 Z" transform="translate(-5.9,-14.1)" fill="#828fa2"/>
        <path id="Path_231663" data-name="Path 231663" d="M 5.8 33.4 a 0.8 0.8 0 0 0 0.8 -0.8 V 24.7 a 0.8 0.8 0 1 0 -1.6 0 v 7.9 A 0.8 0.8 0 0 0 5.8 33.4 Z" transform="translate(-5,-15)" fill="#828fa2"/>
      </g>
      <g id="Rectangle_110279" data-name="Rectangle 110279" transform="translate(928,423.9)" fill="none" stroke="#828fa2" stroke-width="2">
        <rect width="45" height="33" stroke="none"/>
        <rect x="1" y="1" width="43" height="31" fill="none"/>
      </g>
    </g>
    
  </g>
</svg>
