<svg xmlns="http://www.w3.org/2000/svg" width="23.826" height="30.328" viewBox="0 0 23.826 30.328">
  <g id="Group_158039" data-name="Group 158039" transform="translate(-21.463 -7.914)">
    <path id="Path_231418" data-name="Path 231418" d="M338.42,102.817a10.048,10.048,0,0,1-12.958,0,8.8,8.8,0,0,0-5.436,8.133v3.268a3.171,3.171,0,0,0,3.171,3.172H340.68a3.171,3.171,0,0,0,3.171-3.172v-3.268A8.8,8.8,0,0,0,338.42,102.817Z" transform="translate(-298.562 -79.146)" fill="#fff"/>
    <path id="Path_231419" data-name="Path 231419" d="M325.235,99.86a8.2,8.2,0,0,0,2.834,2.548c.229.125.467.238.709.341a8.042,8.042,0,0,0,8.794-13.109c-.182-.182-.372-.355-.571-.518a8.053,8.053,0,0,0-10.233,0c-.2.163-.39.337-.571.518a8.142,8.142,0,0,0-.984,1.189,8.017,8.017,0,0,0,.023,9.031Z" transform="translate(-298.506 -79.373)" fill="#fff"/>
  </g>
</svg>
