<svg xmlns="http://www.w3.org/2000/svg" width="723.263" height="434.577" viewBox="0 0 723.263 434.577">
  <g id="Group_156630" data-name="Group 156630" transform="translate(-136.019 -220.658)">
    <g id="Group_156629" data-name="Group 156629">
      <g id="Group_134846" data-name="Group 134846" transform="translate(136.02 220.658)">
        <path id="Path_195887" data-name="Path 195887" d="M773.751,1680.494H50.488v-126.27H67.995V1487.3H50.488V1245.917H773.751v134.3H753.4v182.52h20.349ZM52.337,1678.06H771.9V1565.176H751.552V1377.788H771.9V1248.351H52.337v236.516H69.845v71.792H52.337Z" transform="translate(-50.488 -1245.917)" fill="#fff"/>
        <g id="Group_131009" data-name="Group 131009" transform="translate(1.217 1.216)" opacity="0.5">
          <path id="Path_195889" data-name="Path 195889" d="M91.752,1247.637H52.209v91.22l39.542-39.542Z" transform="translate(-52.209 -1247.637)" fill="#fff" opacity="0.5"/>
        </g>
        <g id="Group_131011" data-name="Group 131011" transform="translate(599.503 408.216)" opacity="0.5">
          <path id="Path_195891" data-name="Path 195891" d="M1343.685,1270.807H1221.143l23.17-23.17h99.372Z" transform="translate(-1221.143 -1247.637)" fill="#fff" opacity="0.5"/>
        </g>
        <g id="Group_131012" data-name="Group 131012" transform="translate(103.821 411.799)" opacity="0.5">
          <path id="Path_195892" data-name="Path 195892" d="M607.861,1828.349H302.069l-21.56,21.56H629.422Z" transform="translate(-280.508 -1828.349)" fill="#fff" opacity="0.5"/>
        </g>
        <g id="Group_131013" data-name="Group 131013" transform="translate(289.475 1.216)" opacity="0.5">
          <path id="Path_195893" data-name="Path 195893" d="M663.914,1247.637l13.841,13.841H915.375l13.841-13.841Z" transform="translate(-663.914 -1247.637)" fill="#fff"/>
        </g>
        <g id="Group_156650" data-name="Group 156650" transform="translate(103.821 411.799)" opacity="0.5">
          <path id="Path_195892-2" data-name="Path 195892" d="M607.861,1828.349H302.069l-21.56,21.56H629.422Z" transform="translate(-280.508 -1828.349)" fill="#fff" opacity="0.5"/>
        </g>
      </g>
    </g>
  </g>
</svg>
