<svg xmlns="http://www.w3.org/2000/svg" width="15.779" height="20.626" viewBox="0 0 15.779 20.626">
  <g id="Group_148592" data-name="Group 148592" transform="translate(-47.72 -5)">
    <g id="Group_25157" data-name="Group 25157" transform="translate(47.72 5)">
      <g id="Group_25154" data-name="Group 25154">
        <path id="Path_53078" data-name="Path 53078" d="M443.292,33.7A7.89,7.89,0,0,0,435.4,41.59c0,5.773,7.889,12.736,7.889,12.736s7.889-6.963,7.889-12.736A7.889,7.889,0,0,0,443.292,33.7Zm0,13.133a5.794,5.794,0,0,1-.86-.064,5.624,5.624,0,0,1-2.407-.976c-.147-.1-.289-.217-.425-.335-.1-.089-.2-.181-.3-.277a5.641,5.641,0,1,1,3.989,1.652Z" transform="translate(-435.402 -33.701)" fill="#8290a3"/>
      </g>
      <g id="Group_25155" data-name="Group 25155">
        <path id="Path_53079" data-name="Path 53079" d="M435.4,41.59c0,5.773,7.889,12.736,7.889,12.736V46.836a5.66,5.66,0,0,1-.86-.066,5.6,5.6,0,0,1-2.407-.976,5.38,5.38,0,0,1-.425-.335c-.1-.088-.2-.181-.3-.277a5.641,5.641,0,0,1,3.989-9.63V33.7A7.89,7.89,0,0,0,435.4,41.59Z" transform="translate(-435.402 -33.701)" fill="#8290a3"/>
      </g>
      <g id="Group_25156" data-name="Group 25156">
        <path id="Path_53080" data-name="Path 53080" d="M443.292,33.7A7.89,7.89,0,0,0,435.4,41.59c0,5.773,7.889,12.736,7.889,12.736s7.889-6.963,7.889-12.736A7.889,7.889,0,0,0,443.292,33.7Zm0,13.133a5.794,5.794,0,0,1-.86-.064,5.624,5.624,0,0,1-2.407-.976c-.147-.1-.289-.217-.425-.335-.1-.089-.2-.181-.3-.277a5.641,5.641,0,1,1,3.989,1.652Z" transform="translate(-435.402 -33.701)" fill="#8290a3"/>
      </g>
    </g>
  </g>
</svg>
