<svg xmlns="http://www.w3.org/2000/svg" xmlns:xlink="http://www.w3.org/1999/xlink" width="424.801" height="435.577" viewBox="0 0 424.801 435.577">
  <defs>
    <clipPath id="clip-path">
      <path id="Path_231665" data-name="Path 231665" d="M0,0H417.774V431.557H0L10.672,214.026Z" fill="none"/>
    </clipPath>
    <clipPath id="clip-path-2">
      <rect id="Rectangle_43409" data-name="Rectangle 43409" width="419.996" height="430.744" fill="none"/>
    </clipPath>
  </defs>
  <g id="Group_158041" data-name="Group 158041" transform="translate(-1327.451 -207.158)">
    <rect id="Rectangle_110282" data-name="Rectangle 110282" width="11" height="68" transform="translate(1741.252 449)" fill="#828fa2"/>
    <g id="Group_158040" data-name="Group 158040">
      <g id="Group_156601" data-name="Group 156601" transform="translate(46.44 -505.827)">
        <g id="Group_156583" data-name="Group 156583" transform="translate(1284.537 713.485)">
          <g id="Group_154758" data-name="Group 154758" transform="translate(0 0)">
            <g id="Group_154757" data-name="Group 154757">
              <g id="Mask_Group_1" data-name="Mask Group 1" clip-path="url(#clip-path)">
                <g id="Group_154755" data-name="Group 154755" transform="translate(-2.223)" opacity="0.1">
                  <g id="Group_154754" data-name="Group 154754">
                    <g id="Group_154753" data-name="Group 154753" clip-path="url(#clip-path-2)">
                      <path id="Path_226778" data-name="Path 226778" d="M61.97,7.807V438.531H389.486l-13.876-9.215L259.845,409.143,246.21,425.534l5.7-14.41-7.932-3.062-8.924,16.391-9.172-1.8,8.428-14.41L217.455,405l-8.676,15.31-6.941-1.8,10.907-14.049-12.7-3.242-3.167,6.844L117.555,399.6l-2.727-7.746,20.079-29.539,60.238,7.565,22.31-7.565,68.666,5.584,65.443-52.6H364.7l-20.079,33.862-29,26.658,44.125,7.3L405.108,401.4l64.781-16.211,1.654,35.123L450.4,438.552l30.7-.022.311-155.325.551-275.365ZM145.9,321.244,117,333.672l5.763,15.941L117,360.42l5.763,1.351-11.528,16.751L85.576,233.165,111.6,183.181l-23.8-34.212L104.541,47.685l-.372,43.5,15.3,22.905-10.1,33.427,14.5,38.906-23.054,56.021L87.808,289.9l17.476,10.426,13.758-8.436-1.487,12.2L98.963,319.352l9.668,5.944,42.507-21.206Z" transform="translate(-61.97 -7.807)" fill="#fff"/>
                    </g>
                  </g>
                </g>
                <path id="Path_226779" data-name="Path 226779" d="M221.175,347.819c-.292-1.486-29.273-149.108-40.017-197.789C173.079,113.419,146.138,3.6,145.867,2.5l2.425-.635c.272,1.105,27.219,110.953,35.306,147.594,10.75,48.711,39.738,196.364,40.029,197.85Z" transform="translate(-78.135 -6.983)" fill="#fff"/>
                <path id="Path_226780" data-name="Path 226780" d="M221.175,347.819c-.292-1.486-29.273-149.108-40.017-197.789C173.079,113.419,146.138,3.6,145.867,2.5l2.425-.635c.272,1.105,27.219,110.953,35.306,147.594,10.75,48.711,39.738,196.364,40.029,197.85Z" transform="translate(-78.135 -6.983)" fill="none" stroke="#fff" stroke-miterlimit="10" stroke-width="2"/>
                <path id="Path_226781" data-name="Path 226781" d="M130.941,407.543l-.339-.154c-.436-.2-43.841-19.941-58.572-25.523-17.194-6.515-16.407-8.97.861-2.425C87,384.786,127.15,403,131.271,404.869c8.372-1.4,153.916-25.615,203.505-28.091,30.44-1.522,120.617,4.364,126.075,4.722l10.615-3.792.818,2.443-11.091,3.961-.252-.017C460,384.032,366,377.809,334.9,379.359c-50.67,2.53-202.067,27.867-203.591,28.122Z" transform="translate(-54.102 -56.151)" fill="#fff"/>
                <path id="Path_226782" data-name="Path 226782" d="M130.941,407.543l-.339-.154c-.436-.2-43.841-19.941-58.572-25.523-17.194-6.515-16.407-8.97.861-2.425C87,384.786,127.15,403,131.271,404.869c8.372-1.4,153.916-25.615,203.505-28.091,30.44-1.522,120.617,4.364,126.075,4.722l10.615-3.792.818,2.443-11.091,3.961-.252-.017C460,384.032,366,377.809,334.9,379.359c-50.67,2.53-202.067,27.867-203.591,28.122Z" transform="translate(-54.102 -56.151)" fill="none" stroke="#fff" stroke-miterlimit="10" stroke-width="2"/>
                <path id="Path_226783" data-name="Path 226783" d="M51.563,648.645l-2.271-1.085c.532-1.187,53.471-119.2,80.652-168.487,26.17-47.452,78.36-130.3,105.392-171.35,18.556-28.177,49.692-73.781,77.163-114.017,18.329-26.845,35.641-52.2,47.917-70.461C380.544,93.306,440.272,2.3,440.872,1.389l2.07,1.45c-.6.916-60.335,91.93-80.471,121.88-12.282,18.267-29.6,43.627-47.928,70.476-27.465,40.229-58.6,85.823-77.139,113.982-27.01,41.017-79.151,123.785-105.287,171.175C104.989,529.542,52.094,647.46,51.563,648.645" transform="translate(-62.086 -6.917)" fill="#fff"/>
                <path id="Path_226784" data-name="Path 226784" d="M51.563,648.645l-2.271-1.085c.532-1.187,53.471-119.2,80.652-168.487,26.17-47.452,78.36-130.3,105.392-171.35,18.556-28.177,49.692-73.781,77.163-114.017,18.329-26.845,35.641-52.2,47.917-70.461C380.544,93.306,440.272,2.3,440.872,1.389l2.07,1.45c-.6.916-60.335,91.93-80.471,121.88-12.282,18.267-29.6,43.627-47.928,70.476-27.465,40.229-58.6,85.823-77.139,113.982-27.01,41.017-79.151,123.785-105.287,171.175C104.989,529.542,52.094,647.46,51.563,648.645Z" transform="translate(-62.086 -6.917)" fill="none" stroke="#fff" stroke-miterlimit="10" stroke-width="2"/>
                <path id="Path_226785" data-name="Path 226785" d="M332.484,200.765,190.81,49.9,203.929,1.824l2.408.7L193.608,49.171l140.671,149.8Z" transform="translate(-85.603 -6.977)" fill="#fff"/>
                <path id="Path_226786" data-name="Path 226786" d="M332.484,200.765,190.81,49.9,203.929,1.824l2.408.7L193.608,49.171l140.671,149.8Z" transform="translate(-85.603 -6.977)" fill="none" stroke="#fff" stroke-miterlimit="10" stroke-width="2"/>
                <path id="Path_231573" data-name="Path 231573" d="M.015.8,99.2-.645l-.037,2.562L-.022,3.362Z" transform="translate(86.614 70.602) rotate(-31.508)" fill="#fff"/>
                <path id="Path_226787" data-name="Path 226787" d="M408.084,350.076l-2.327-.947,40.716-106.762-14.855-66.495-17.494-21.833,1.927-1.648,17.871,22.3.067.3,15.1,67.575-.142.373Z" transform="translate(-121.322 -27.856)" fill="#fff"/>
                <path id="Path_226788" data-name="Path 226788" d="M392.534,140.685,349.58,73.836l-82.856-44.3-.072-.062L236.009,2.783l1.075-1.317,30.572,26.628L350.73,72.511l.12.185,43.073,67.036Z" transform="translate(-93.114 -6.928)" fill="#fff"/>
                <path id="Path_226789" data-name="Path 226789" d="M228.356,88l-1.139-1.258L252.39,62.415,237.519,49.221l1.086-1.308L254.887,62.36Z" transform="translate(-91.653 -13.368)" fill="#fff"/>
                <path id="Path_231574" data-name="Path 231574" d="M.01.738,82.776-.6l-.027,1.7L-.018,2.436Z" transform="translate(198.662 126.841) rotate(-41.311)" fill="#fff"/>
                <path id="Path_231575" data-name="Path 231575" d="M.02.409l45.627-.74-.041,2.543-45.627.74Z" transform="matrix(0.707, -0.708, 0.708, 0.707, 207.074, 88.745)" fill="#fff"/>
                <path id="Path_226790" data-name="Path 226790" d="M323.923,118.637l-52.254-46.6L296.552,47.4l1.155,1.244-23.56,23.328,50.867,45.36Z" transform="translate(-99.04 -13.297)" fill="#fff"/>
                <path id="Path_231576" data-name="Path 231576" d="M.281.012,1.986-.013,1.478,33.505l-1.705.026Z" transform="matrix(0.561, -0.828, 0.828, 0.561, 157.787, 28.528)" fill="#fff"/>
                <path id="Path_231577" data-name="Path 231577" d="M.014.13,14.8-.105l-.027,1.7L-.013,1.831Z" transform="translate(166.68 33.031) rotate(-38.853)" fill="#fff"/>
                <path id="Path_231578" data-name="Path 231578" d="M.014.143l15.93-.259-.027,1.7-15.93.259Z" transform="matrix(0.719, -0.695, 0.695, 0.719, 177.235, 40.517)" fill="#fff"/>
                <path id="Path_231579" data-name="Path 231579" d="M.134.014l1.7-.027-.243,15.33-1.7.027Z" transform="translate(161.375 49.792) rotate(-51.71)" fill="#fff"/>
                <path id="Path_231580" data-name="Path 231580" d="M.214.013l1.7-.027L1.526,24.025l-1.7.027Z" transform="matrix(0.651, -0.76, 0.76, 0.651, 222.972, 74.809)" fill="#fff"/>
                <path id="Path_231581" data-name="Path 231581" d="M.216.013l1.7-.026L1.53,25.118l-1.7.026Z" transform="matrix(0.587, -0.81, 0.81, 0.587, 231.419, 66.196)" fill="#fff"/>
                <path id="Path_231582" data-name="Path 231582" d="M.009.382,56.028-.307l-.021,1.714L-.011,2.1Z" transform="translate(96.088 108.515) rotate(-24.297)" fill="#fff"/>
                <path id="Path_226791" data-name="Path 226791" d="M247.924,254.808,206.908,122.967l1.588-.528,40.563,130.387,20.85-4.161.317,1.691Z" transform="translate(-88.278 -23.703)" fill="#fff"/>
                <path id="Path_231583" data-name="Path 231583" d="M.005.166l47.384-.3-.011,1.72-47.384.3Z" transform="translate(80.852 133.394) rotate(-11.276)" fill="#fff"/>
                <path id="Path_231584" data-name="Path 231584" d="M.007.071,17.175-.057l-.012,1.719L-.006,1.79Z" transform="matrix(0.973, -0.232, 0.232, 0.973, 113.981, 138.985)" fill="#fff"/>
                <path id="Path_231585" data-name="Path 231585" d="M.006.063,15.777-.051l-.012,1.719L-.006,1.783Z" transform="translate(120.815 156.218) rotate(-13.036)" fill="#fff"/>
                <path id="Path_231586" data-name="Path 231586" d="M.007.2,42.9-.159,42.889,1.56l-42.9.357Z" transform="translate(99.065 177.782) rotate(-15.19)" fill="#fff"/>
                <path id="Path_231587" data-name="Path 231587" d="M.007.208,43.558-.166l-.014,1.719L-.007,1.927Z" transform="translate(103.486 194.261) rotate(-15.753)" fill="#fff"/>
                <path id="Path_231588" data-name="Path 231588" d="M.019.44l49.4-.8-.041,2.548-49.4.8Z" transform="matrix(0.75, -0.661, 0.661, 0.75, 131.952, 141.633)" fill="#fff"/>
                <path id="Path_231589" data-name="Path 231589" d="M.011.507,57.763-.41l-.027,1.7L-.016,2.209Z" transform="translate(142.104 173.552) rotate(-38.647)" fill="#fff"/>
                <path id="Path_226792" data-name="Path 226792" d="M244.881,223.7l-1.142-2.3,31.653-16.792,24.928-30.745L338.551,135.8l1.736,1.86L302.1,175.678l-25.12,30.993Z" transform="translate(-94.399 -25.556)" fill="#fff"/>
                <path id="Path_226793" data-name="Path 226793" d="M274.04,209.99,255.179,187.9l-18.717-25.328L238.45,161l18.691,25.29,18.775,21.987Z" transform="translate(-93.189 -29.05)" fill="#fff"/>
                <path id="Path_226794" data-name="Path 226794" d="M188.595,262l-5.478-5.013,1.106-1.289,4.875,4.46,16.105-2.943,34.865-6.807,26.926-21.466,38.882-29.806.994,1.384L268,230.313l-27.229,21.709-.2.038L205.5,258.908Z" transform="translate(-84.325 -34.338)" fill="#fff"/>
                <path id="Path_226795" data-name="Path 226795" d="M196,303.765l-6.987-32.557,1.628-.373,6.631,30.893,15.165-3.3.344,1.686Z" transform="translate(-85.304 -44.28)" fill="#fff"/>
                <path id="Path_226796" data-name="Path 226796" d="M194.237,288.156l-.415-1.668,16.039-4.263,36.276-8.233.359,1.682L210.249,283.9Z" transform="translate(-86.104 -44.718)" fill="#fff"/>
                <path id="Path_226797" data-name="Path 226797" d="M290.848,250.71l-8.824-17.818-7.062-12.124,1.429-.888,7.09,12.175,8.853,17.871Z" transform="translate(-99.587 -37.214)" fill="#fff"/>
                <path id="Path_231590" data-name="Path 231590" d="M.151.014l1.7-.027L1.575,16.808l-1.7.027Z" transform="translate(191.171 168.394) rotate(-46.844)" fill="#fff"/>
                <path id="Path_231591" data-name="Path 231591" d="M.018.572,66.18-.466l-.04,2.533L-.022,3.105Z" transform="translate(243.573 161.295) rotate(-52.012)" fill="#fff"/>
                <path id="Path_231592" data-name="Path 231592" d="M.019.523,58.382-.424l-.041,2.542L-.022,3.065Z" transform="matrix(0.706, -0.708, 0.708, 0.706, 231.401, 140.921)" fill="#fff"/>
                <path id="Path_231593" data-name="Path 231593" d="M.172.021,2.709-.02,2.4,19.4l-2.538.041Z" transform="matrix(0.752, -0.659, 0.659, 0.752, 209.171, 119.421)" fill="#fff"/>
                <path id="Path_231594" data-name="Path 231594" d="M.167.014,1.86-.013l-.3,18.721-1.693.027Z" transform="matrix(0.732, -0.681, 0.681, 0.732, 220.223, 109.431)" fill="#fff"/>
                <path id="Path_231595" data-name="Path 231595" d="M.273.013,1.965-.014l-.5,30.728-1.692.027Z" transform="translate(231.838 98.864) rotate(-42.22)" fill="#fff"/>
                <path id="Path_226798" data-name="Path 226798" d="M387.791,182.239,373.7,171.546l-16.78-11.9.944-1.419,16.8,11.917,14.113,10.71Z" transform="translate(-113.207 -28.665)" fill="#fff"/>
                <path id="Path_226799" data-name="Path 226799" d="M403.04,161.792l-13.46-10.615-13.631-10.65,1.006-1.374,13.633,10.653,13.463,10.617Z" transform="translate(-116.369 -26.02)" fill="#fff"/>
                <path id="Path_226800" data-name="Path 226800" d="M114.733,389l-2.407-.7,9.7-35.338,27.673-6.371,103.214-.847.019,2.584-103.08.846-25.825,5.973Z" transform="translate(-72.561 -54.666)" fill="#fff"/>
                <path id="Path_226801" data-name="Path 226801" d="M114.733,389l-2.407-.7,9.7-35.338,27.673-6.371,103.214-.847.019,2.584-103.08.846-25.825,5.973Z" transform="translate(-72.561 -54.666)" fill="none" stroke="#fff" stroke-miterlimit="10" stroke-width="2"/>
                <path id="Path_231596" data-name="Path 231596" d="M0,.034,33.569-.027l0,1.722L0,1.756Z" transform="translate(104.75 311.406) rotate(-3.183)" fill="#fff"/>
                <path id="Path_231597" data-name="Path 231597" d="M.012.33l39.526-.6-.026,1.685-39.526.6Z" transform="matrix(0.574, -0.819, 0.819, 0.574, 34.779, 373.505)" fill="#fff"/>
                <path id="Path_231598" data-name="Path 231598" d="M.16.01,1.875-.009,1.587,25.479-.128,25.5Z" transform="translate(47.226 357.648) rotate(-68.238)" fill="#fff"/>
                <path id="Path_226802" data-name="Path 226802" d="M137.618,201.941,127.9,185.749v-40.4h1.668v39.906l9.464,15.774Z" transform="translate(-75.15 -26.88)" fill="#fff"/>
                <path id="Path_231599" data-name="Path 231599" d="M.006.162,44.014-.13,44,1.591-.005,1.883Z" transform="translate(53.378 150.517) rotate(-11.861)" fill="#fff"/>
                <path id="Path_231600" data-name="Path 231600" d="M.006.158,43.537-.126l-.011,1.721L-.005,1.878Z" transform="matrix(0.979, -0.202, 0.202, 0.979, 57.501, 164.488)" fill="#fff"/>
                <path id="Path_231601" data-name="Path 231601" d="M.011.379,47.541-.31l-.025,1.684L-.014,2.063Z" transform="matrix(0.531, -0.847, 0.847, 0.531, 204.931, 214.604)" fill="#fff"/>
                <path id="Path_231602" data-name="Path 231602" d="M.16.011,1.872-.01,1.584,22.933l-1.713.021Z" transform="matrix(0.423, -0.906, 0.906, 0.423, 212.882, 204.067)" fill="#fff"/>
                <path id="Path_226803" data-name="Path 226803" d="M395.154,275.656l-58.283-17.285.46-1.656,57.119,16.941,34.4-52.559L377.432,198.21l.66-1.582,53.266,23.71Z" transform="translate(-109.875 -33.99)" fill="#fff"/>
                <path id="Path_226804" data-name="Path 226804" d="M380.659,261.807l-31.768-15.746.722-1.552L380.1,259.618l16.123-24L365.976,221.05l.7-1.561,32.039,15.428Z" transform="translate(-111.873 -37.16)" fill="#fff"/>
                <path id="Path_231603" data-name="Path 231603" d="M.158.01,1.872-.01,1.586,23.22l-1.713.021Z" transform="translate(273.662 216.182) rotate(-65.761)" fill="#fff"/>
                <path id="Path_231604" data-name="Path 231604" d="M.013.17,20.5-.139l-.026,1.685L-.013,1.855Z" transform="translate(272.399 236.623) rotate(-55.413)" fill="#fff"/>
                <path id="Path_231605" data-name="Path 231605" d="M.013.223l25.366-.4-.027,1.69-25.366.4Z" transform="matrix(0.645, -0.765, 0.765, 0.645, 284.784, 197.419)" fill="#fff"/>
                <path id="Path_231606" data-name="Path 231606" d="M.014.1,12.362-.085,12.336,1.6-.012,1.791Z" transform="translate(260.717 233.165) rotate(-54.5)" fill="#fff"/>
                <path id="Path_231607" data-name="Path 231607" d="M.013.3,34-.246l-.027,1.693L-.014,2Z" transform="matrix(0.681, -0.733, 0.733, 0.681, 287.878, 171.919)" fill="#fff"/>
                <path id="Path_231608" data-name="Path 231608" d="M.208.013l1.7-.026L1.537,24.708l-1.7.026Z" transform="matrix(0.564, -0.826, 0.826, 0.564, 279.31, 146.661)" fill="#fff"/>
                <path id="Path_231609" data-name="Path 231609" d="M.208.005l1.72-.011L1.554,56.471l-1.72.011Z" transform="matrix(0.205, -0.979, 0.979, 0.205, 244.802, 272.503)" fill="#fff"/>
                <path id="Path_226805" data-name="Path 226805" d="M426.438,375.619H424.77V364.878l-70.918-23.222.5-1.642,72.082,23.6Z" transform="translate(-112.697 -53.873)" fill="#fff"/>
                <path id="Path_231610" data-name="Path 231610" d="M.113.007,1.831-.007l-.2,23.928-1.718.014Z" transform="matrix(0.269, -0.963, 0.963, 0.269, 299.22, 219.363)" fill="#fff"/>
                <path id="Path_231611" data-name="Path 231611" d="M.16.008,1.877-.008,1.589,29.531l-1.717.016Z" transform="translate(284.61 241.633) rotate(-71.854)" fill="#fff"/>
                <path id="Path_226806" data-name="Path 226806" d="M380.047,84.629l-1.112-1.282,57.756-53.48L487.7,16.784l.4,1.673L437.495,31.436Z" transform="translate(-116.865 -9.052)" fill="#fff"/>
                <path id="Path_231612" data-name="Path 231612" d="M.434.012,2.126-.015,1.339,48.891l-1.692.027Z" transform="translate(256.015 14.41) rotate(-41.508)" fill="#fff"/>
                <path id="Path_226807" data-name="Path 226807" d="M430.705,44.84,425.157,40.9,386.959,2.75l1.16-1.239,38.147,38.1,5.381,3.8Z" transform="translate(-118.198 -6.934)" fill="#fff"/>
                <path id="Path_231613" data-name="Path 231613" d="M.014.211,23.528-.171l-.027,1.7L-.014,1.907Z" transform="matrix(0.729, -0.685, 0.685, 0.729, 271.187, 30.226)" fill="#fff"/>
                <path id="Path_231614" data-name="Path 231614" d="M.274.009,1.99-.009,1.5,45.478-.219,45.5Z" transform="matrix(0.353, -0.936, 0.936, 0.353, 291.61, 48.788)" fill="#fff"/>
                <path id="Path_231615" data-name="Path 231615" d="M.321.009,2.035-.01,1.457,50.6l-1.714.019Z" transform="translate(275.36 63.828) rotate(-67.957)" fill="#fff"/>
                <path id="Path_231616" data-name="Path 231616" d="M.285.011,2-.012,1.482,38.229l-1.711.023Z" transform="translate(311.094 30.58) rotate(-62.42)" fill="#fff"/>
                <path id="Path_226808" data-name="Path 226808" d="M493.637,89.572,460.5,83.7l.282-1.7,31.6,5.6L502.94,42.667l-14.775-.79.087-1.72,16.783.9Z" transform="translate(-130.42 -12.293)" fill="#fff"/>
                <path id="Path_231617" data-name="Path 231617" d="M.035,0,1.757,0,1.694,27.609l-1.722,0Z" transform="translate(339.027 58.018) rotate(-86.016)" fill="#fff"/>
                <path id="Path_231618" data-name="Path 231618" d="M.006.053,16.4-.044l-.01,1.67L0,1.724Z" transform="matrix(0.189, -0.982, 0.982, 0.189, 355.66, 75.054)" fill="#fff"/>
                <path id="Path_231619" data-name="Path 231619" d="M.007.07l15.74-.127-.014,1.671-15.74.127Z" transform="translate(342.983 72.741) rotate(-74.811)" fill="#fff"/>
                <path id="Path_226809" data-name="Path 226809" d="M427.5,489.828l-99.231-108.5-40.882-43.994,1.2-1.193,40.886,44,99.235,108.507Z" transform="translate(-101.653 -53.335)" fill="#fff"/>
                <path id="Path_231620" data-name="Path 231620" d="M.013.26,29.478-.211l-.027,1.7L-.014,1.961Z" transform="matrix(0.771, -0.636, 0.636, 0.771, 303.327, 410.524)" fill="#fff"/>
                <path id="Path_231621" data-name="Path 231621" d="M.013.213,24.407-.172l-.027,1.7L-.013,1.915Z" transform="matrix(0.791, -0.612, 0.612, 0.791, 271.73, 375.932)" fill="#fff"/>
                <path id="Path_231622" data-name="Path 231622" d="M.445.012,2.133-.015,1.326,52.095l-1.688.026Z" transform="matrix(0.801, -0.599, 0.599, 0.801, 310.417, 389.876)" fill="#fff"/>
                <path id="Path_226810" data-name="Path 226810" d="M546.112,574.7,511.319,382.46l4.211-13.5,1.588.528-4.082,13.085L547.752,574.38Z" transform="translate(-138.864 -57.887)" fill="#fff"/>
                <path id="Path_231623" data-name="Path 231623" d="M.012.259,30.885-.209,30.859,1.5-.013,1.964Z" transform="matrix(0.829, -0.559, 0.559, 0.829, 391.814, 429.365)" fill="#fff"/>
                <path id="Path_231624" data-name="Path 231624" d="M.61.01,2.3-.016,1.191,70.638-.5,70.665Z" transform="translate(347.129 365.016) rotate(-37.784)" fill="#fff"/>
                <path id="Path_226811" data-name="Path 226811" d="M286.757,544.456l-.338-.21-95.6-59.576.861-1.475,95.26,59.366,52.463-19.212.3.128,33.908,14.643-.643,1.589-33.611-14.514Z" transform="translate(-85.605 -73.727)" fill="#fff"/>
                <path id="Path_226812" data-name="Path 226812" d="M170.406,558.3l-17.623-11.639.9-1.451,16.285,10.756,38.05-55.294,1.359,1Z" transform="translate(-79.284 -76.15)" fill="#fff"/>
                <path id="Path_231625" data-name="Path 231625" d="M.21.012,1.92-.012,1.54,26.807l-1.71.024Z" transform="translate(94.572 428.587) rotate(-60.08)" fill="#fff"/>
                <path id="Path_226813" data-name="Path 226813" d="M446.237,197.636l-.849-1.484L480.24,174.9,444.1,113.12l1.427-.891,37.014,63.265Z" transform="translate(-127.694 -22.287)" fill="#fff"/>
                <path id="Path_231626" data-name="Path 231626" d="M.012.307,36.184-.248l-.026,1.7L-.014,2.012Z" transform="matrix(0.818, -0.575, 0.575, 0.818, 300.891, 134.132)" fill="#fff"/>
                <path id="Path_231627" data-name="Path 231627" d="M.139.011,1.816-.01,1.564,20.226l-1.677.021Z" transform="translate(304.871 107.922) rotate(-25.491)" fill="#fff"/>
                <path id="Path_226814" data-name="Path 226814" d="M546.96,153.536l-13.6-10.14L456.013,132l.236-1.705L534,141.751l13.938,10.389Z" transform="translate(-129.674 -24.791)" fill="#fff"/>
                <path id="Path_231628" data-name="Path 231628" d="M.013.281,31.387-.228l-.028,1.7L-.014,1.977Z" transform="translate(395.145 126.313) rotate(-44.98)" fill="#fff"/>
                <path id="Path_231629" data-name="Path 231629" d="M.009.1,16.347-.077,16.33,1.639-.008,1.812Z" transform="translate(403.258 135.139) rotate(-20.058)" fill="#fff"/>
                <rect id="Rectangle_43467" data-name="Rectangle 43467" width="1.668" height="22.241" transform="translate(369.677 112.845)" fill="#fff"/>
                <path id="Path_231630" data-name="Path 231630" d="M0,.035,21.217-.028l0,1.722L0,1.757Z" transform="translate(353.615 152.019) rotate(-5.164)" fill="#fff"/>
                <path id="Path_231631" data-name="Path 231631" d="M0,.02,19.92-.016l0,1.723L0,1.743Z" transform="translate(397.839 148.481) rotate(-3.182)" fill="#fff"/>
                <path id="Path_226815" data-name="Path 226815" d="M485.41,271.927l-1.473-.807,7.257-14.11-2.083-41.9,12.873-31.753,1.539.665L490.8,215.41l2.086,41.987Z" transform="translate(-134.314 -32.149)" fill="#fff"/>
                <path id="Path_231632" data-name="Path 231632" d="M0,.157,84.047-.125,84.041,1.6,0,1.879Z" transform="translate(318.796 179.779) rotate(-5.885)" fill="#fff"/>
                <path id="Path_231633" data-name="Path 231633" d="M.387.012l1.7-.028-.7,43.184-1.7.028Z" transform="matrix(0.714, -0.701, 0.701, 0.714, 387.142, 157.838)" fill="#fff"/>
                <path id="Path_231634" data-name="Path 231634" d="M0,.145,56.839-.116l-.008,1.722L0,1.867Z" transform="translate(355.878 189.718) rotate(-8.078)" fill="#fff"/>
                <path id="Path_231635" data-name="Path 231635" d="M.29.011,2-.012l-.523,38.63-1.711.023Z" transform="translate(355.942 200.923) rotate(-62.138)" fill="#fff"/>
                <path id="Path_231636" data-name="Path 231636" d="M.063.006,1.782-.005,1.669,16.111l-1.719.012Z" transform="translate(357.524 225.954) rotate(-77.414)" fill="#fff"/>
                <path id="Path_231637" data-name="Path 231637" d="M.421.011,2.13-.013,1.37,53.3l-1.709.024Z" transform="translate(369.11 189.801) rotate(-59.692)" fill="#fff"/>
                <path id="Path_231638" data-name="Path 231638" d="M.012.128,17.788-.1l-.022,1.679L-.011,1.807Z" transform="matrix(0.457, -0.889, 0.889, 0.457, 409.677, 226.425)" fill="#fff"/>
                <path id="Path_231639" data-name="Path 231639" d="M.013.167l21.015-.3L21,1.546l-21.015.3Z" transform="matrix(0.527, -0.85, 0.85, 0.527, 390.799, 201.393)" fill="#fff"/>
                <path id="Path_231640" data-name="Path 231640" d="M.01.242,35.77-.2l-.021,1.678L-.011,1.92Z" transform="translate(363.27 226.402) rotate(-64.922)" fill="#fff"/>
                <path id="Path_231650" data-name="Path 231650" d="M.025,0,1.693,0,1.648,29.037l-1.669,0Z" transform="matrix(0.999, -0.049, 0.049, 0.999, 381.187, 157.732)" fill="#fff"/>
                <path id="Path_231651" data-name="Path 231651" d="M.025,0,1.748,0,1.7,31.257l-1.723,0Z" transform="translate(325.895 213.152) rotate(-87.496)" fill="#fff"/>
                <path id="Path_226816" data-name="Path 226816" d="M545.446,312.855l-55.86-26.34-28.323-.587-15.211-3.1.323-1.691,15.14,3.083,28.449.575,56.175,26.489Z" transform="translate(-128.018 -45.709)" fill="#fff"/>
                <path id="Path_231641" data-name="Path 231641" d="M.249.007,1.968-.008,1.519,50.231-.2,50.246Z" transform="translate(302.965 276.451) rotate(-73.546)" fill="#fff"/>
                <path id="Path_231642" data-name="Path 231642" d="M.008.229,44.06-.188l-.016,1.673L-.008,1.9Z" transform="translate(361.569 288.278) rotate(-71.847)" fill="#fff"/>
                <path id="Path_231643" data-name="Path 231643" d="M.012.183,38.106-.151l-.023,2.508L-.011,2.692Z" transform="matrix(0.286, -0.958, 0.958, 0.286, 378.444, 289.639)" fill="#fff"/>
                <path id="Path_231644" data-name="Path 231644" d="M.007.161,35.765-.132l-.014,1.671L-.007,1.832Z" transform="matrix(0.266, -0.964, 0.964, 0.266, 395.823, 295.098)" fill="#fff"/>
                <path id="Path_226817" data-name="Path 226817" d="M559.541,335.65l-17.067-5.314-16.339-6.357.588-1.612,16.286,6.338,17.013,5.3Z" transform="translate(-141.326 -51.426)" fill="#fff"/>
                <path id="Path_231645" data-name="Path 231645" d="M.008.248,50.327-.2l-.015,1.672L-.008,1.92Z" transform="matrix(0.293, -0.956, 0.956, 0.293, 344.041, 287.822)" fill="#fff"/>
                <path id="Path_231646" data-name="Path 231646" d="M.007.2,43.253-.168,43.238,1.5-.007,1.877Z" transform="translate(320.638 280.697) rotate(-73.713)" fill="#fff"/>
                <path id="Path_231647" data-name="Path 231647" d="M.042,0,1.763,0l-.075,14.44-1.722.009Z" transform="translate(404.067 344.055) rotate(-80.856)" fill="#fff"/>
                <path id="Path_231648" data-name="Path 231648" d="M0,.008l5-.014L5,1.716,0,1.73Z" transform="translate(-2.007 127.18) rotate(-5.021)" fill="#fff"/>
                <path id="Path_226818" data-name="Path 226818" d="M80.679,142.962l-.146-1.716,10.275-.933.146,1.716Zm20.55-1.865-.146-1.717,10.275-.933.145,1.717Zm20.55-1.866-.146-1.717,10.275-.932.146,1.716Zm20.55-1.866-.146-1.716,10.275-.933.146,1.716Zm20.55-1.866-.146-1.716,10.275-.933.145,1.717Zm20.55-1.866-.146-1.716,10.275-.933.146,1.716Zm20.359-3.686-1.145-1.252,7.5-7.314,1.145,1.253Zm15-14.628-1.145-1.252,7.5-7.314,1.145,1.253Zm15-14.627-1.145-1.252,7.5-7.314,1.145,1.252Zm15-14.627-1.145-1.252,7.5-7.314,1.145,1.252Zm15-14.627-1.145-1.252,7.5-7.314,1.145,1.252Z" transform="translate(-67.278 -15.443)" fill="#fff"/>
                <path id="Path_226819" data-name="Path 226819" d="M328.727,56.447l-7.463-4.558-3.182,3.1-1.145-1.253,4.095-3.992,7.462,4.556,3.176-3.106,1.146,1.251Z" transform="translate(-106.563 -13.623)" fill="#fff"/>
                <path id="Path_226820" data-name="Path 226820" d="M343.743,41.972,342.6,40.721l6.662-6.514,1.146,1.251Zm13.324-13.028-1.147-1.251,6.662-6.514,1.146,1.251Z" transform="translate(-110.827 -9.661)" fill="#fff"/>
                <path id="Path_231649" data-name="Path 231649" d="M.015.045,5.1-.037l-.027,1.7-5.081.082Z" transform="translate(258.377 4.981) rotate(-43.44)" fill="#fff"/>
                <path id="Path_226821" data-name="Path 226821" d="M387.048,540.479l-8.721-5.067.817-1.5,8.721,5.067Zm-17.442-10.135-8.721-5.067.817-1.5,8.721,5.067Zm-11.393-15.513-1.854-10.157,1.638-.32,1.854,10.157Zm-3.707-20.315-1.492-8.178,3.164-1.189.57,1.618-1.833.689,1.229,6.739Zm56.113-.9-7.9-3.371.636-1.592,7.077,3.02,1.213-.838.926,1.432Zm10.273-7.094-.927-1.432,8.319-5.744.926,1.432Zm-27.418-.225-9.248-3.948.637-1.591,9.247,3.948Zm-27.323-3.057-.569-1.618,9.4-3.532.57,1.618Zm71.377-8.207L436.6,473.6l8.319-5.745.926,1.431Zm16.636-11.489-.926-1.432,6.48-4.475-.324-.574,1.442-.868,1.114,1.973Zm.188-15.408-.871-1.543,7.875-5.984.988,1.388-6.668,5.065.117.205Zm16.053-12.264-.988-1.388,8.061-6.124.988,1.388Zm16.12-12.247-.988-1.388,8.061-6.124.988,1.388Zm14.223-14.4-1.514-.72,4.18-9.39,1.515.72Zm8.362-18.781-1.514-.72,4.182-9.389,1.514.72Zm8.362-18.78-1.515-.72,4.182-9.391,1.514.72Zm8.362-18.781-1.514-.72,3.573-8.025,1.514.72Z" transform="translate(-112.558 -54.444)" fill="#fff"/>
              </g>
            </g>
          </g>
          <path id="Path_231687" data-name="Path 231687" d="M14.035,0C21.786,0,28.07,6.817,28.07,15.225S21.786,30.45,14.035,30.45,0,23.634,0,15.225,6.284,0,14.035,0Z" transform="translate(118.781 260.397)" fill="#de2b2b" opacity="0.7"/>
          <ellipse id="Ellipse_8373" data-name="Ellipse 8373" cx="15.035" cy="16.225" rx="15.035" ry="16.225" transform="translate(146.852 35.397)" fill="#2699fb" opacity="0.7"/>
        </g>
      </g>
      <g id="Group_156631" data-name="Group 156631" transform="translate(444.176 -13)">
        <g id="Group_156604" data-name="Group 156604" transform="translate(884.276 220.658)">
          <path id="Path_195887" data-name="Path 195887" d="M50.488,1680.494H473.315v-126.27H463.08V1487.3h10.235V1245.917H50.488v134.3h11.9v182.521h-11.9Zm421.746-2.434H51.57V1565.176h11.9V1377.788H51.57V1248.351H472.234v236.516H462v71.792h10.235Z" transform="translate(-50.488 -1245.917)" fill="#fff" stroke="#fff" stroke-width="1"/>
        </g>
      </g>
      <rect id="Rectangle_110283" data-name="Rectangle 110283" width="13" height="183" transform="translate(1327.451 341.118)" fill="#fff" opacity="0.5"/>
      <text id="ID_10" data-name="ID 10" transform="translate(1479.234 488.5)" fill="#d10f20" font-size="13" font-family="SegoeUI-Semibold, Segoe UI" font-weight="600"><tspan x="0" y="0">ID 10</tspan></text>
      <text id="ID_5" data-name="ID 5" transform="translate(1508.234 264.5)" fill="#237ac7" font-size="13" font-family="SegoeUI-Semibold, Segoe UI" font-weight="600"><tspan x="0" y="0">ID 5</tspan></text>
    </g>
  </g>
</svg>
