<svg xmlns="http://www.w3.org/2000/svg" width="464.308" height="32.639" viewBox="0 0 464.308 32.639">
  <g id="Group_158039" data-name="Group 158039" transform="translate(-1345.617 -871.294)">
    <g id="Group_134869" data-name="Group 134869" transform="translate(1345.617 871.294)">
      <path id="Path_195881" data-name="Path 195881" d="M2893.306,601.771H2429V569.132h464.308Zm-461.209-3.1h458.111V572.231H2432.1Z" transform="translate(-2428.998 -569.132)" fill="#c2cbd8"/>
      <g id="Group_156719" data-name="Group 156719">
        <rect id="Rectangle_27931" data-name="Rectangle 27931" width="16.269" height="20.723" transform="translate(6.391 5.524)" fill="#c2cbd8"/>
        <rect id="Rectangle_27932" data-name="Rectangle 27932" width="16.269" height="20.723" transform="translate(28.35 5.524)" fill="#c2cbd8"/>
        <rect id="Rectangle_27933" data-name="Rectangle 27933" width="16.269" height="20.723" transform="translate(50.309 5.524)" fill="#c2cbd8"/>
        <rect id="Rectangle_27934" data-name="Rectangle 27934" width="16.269" height="20.723" transform="translate(72.267 5.524)" fill="#c2cbd8"/>
        <rect id="Rectangle_27935" data-name="Rectangle 27935" width="16.269" height="20.723" transform="translate(94.226 5.524)" fill="#c2cbd8"/>
        <rect id="Rectangle_27936" data-name="Rectangle 27936" width="16.269" height="20.723" transform="translate(116.184 5.524)" fill="#c2cbd8"/>
        <rect id="Rectangle_27937" data-name="Rectangle 27937" width="16.269" height="20.723" transform="translate(138.143 5.524)" fill="#c2cbd8"/>
        <rect id="Rectangle_27938" data-name="Rectangle 27938" width="16.269" height="20.723" transform="translate(160.101 5.524)" fill="#c2cbd8"/>
        <rect id="Rectangle_27939" data-name="Rectangle 27939" width="16.269" height="20.723" transform="translate(182.06 5.524)" fill="#c2cbd8"/>
        <rect id="Rectangle_27940" data-name="Rectangle 27940" width="16.269" height="20.723" transform="translate(204.018 5.524)" fill="#c2cbd8"/>
        <rect id="Rectangle_27941" data-name="Rectangle 27941" width="16.269" height="20.723" transform="translate(225.977 5.524)" fill="#c2cbd8"/>
      </g>
      <g id="Group_156720" data-name="Group 156720" transform="translate(242)">
        <rect id="Rectangle_27931-2" data-name="Rectangle 27931" width="16.269" height="20.723" transform="translate(6.391 5.524)" fill="#c2cbd8"/>
        <rect id="Rectangle_27932-2" data-name="Rectangle 27932" width="16.269" height="20.723" transform="translate(28.35 5.524)" fill="#c2cbd8"/>
        <rect id="Rectangle_27933-2" data-name="Rectangle 27933" width="16.269" height="20.723" transform="translate(50.309 5.524)" fill="#c2cbd8"/>
        <rect id="Rectangle_27934-2" data-name="Rectangle 27934" width="16.269" height="20.723" transform="translate(72.267 5.524)" fill="#c2cbd8"/>
        <rect id="Rectangle_27935-2" data-name="Rectangle 27935" width="16.269" height="20.723" transform="translate(94.226 5.524)" fill="#c2cbd8"/>
        <rect id="Rectangle_27936-2" data-name="Rectangle 27936" width="16.269" height="20.723" transform="translate(116.184 5.524)" fill="#c2cbd8"/>
        <rect id="Rectangle_27937-2" data-name="Rectangle 27937" width="16.269" height="20.723" transform="translate(138.143 5.524)" fill="#c2cbd8"/>
        <rect id="Rectangle_27938-2" data-name="Rectangle 27938" width="16.269" height="20.723" transform="translate(160.101 5.524)" fill="#c2cbd8"/>
      </g>
    </g>
  </g>
</svg>
