<svg id="Group_156646" data-name="Group 156646" xmlns="http://www.w3.org/2000/svg" xmlns:xlink="http://www.w3.org/1999/xlink" width="67.803" height="67.804" viewBox="0 0 67.803 67.804">
  <defs>
    <clipPath id="clip-path">
      <path id="Path_231431" data-name="Path 231431" d="M89.431,272.959a21.362,21.362,0,1,0,21.364-21.364,21.386,21.386,0,0,0-21.364,21.364" transform="translate(-89.431 -251.595)" fill="none"/>
    </clipPath>
    <clipPath id="clip-path-2">
      <rect id="Rectangle_110005" data-name="Rectangle 110005" width="42.724" height="42.723" fill="none"/>
    </clipPath>
  </defs>
  <path id="Path_231428" data-name="Path 231428" d="M148.592,276.854a33.9,33.9,0,1,1-33.9-33.9,33.9,33.9,0,0,1,33.9,33.9" transform="translate(-80.789 -242.952)" fill="#fff"/>
  <path id="Path_231429" data-name="Path 231429" d="M137.73,274.279a25.615,25.615,0,1,1-25.615-25.615,25.615,25.615,0,0,1,25.615,25.615" transform="translate(-78.214 -240.377)" fill="#465c7e"/>
  <rect id="Rectangle_110006" data-name="Rectangle 110006" width="5.438" height="20.974" transform="translate(25.341 23.414)" fill="#fff"/>
  <rect id="Rectangle_110007" data-name="Rectangle 110007" width="5.438" height="20.974" transform="translate(37.025 23.414)" fill="#fff"/>
</svg>
